<svg xmlns="http://www.w3.org/2000/svg" viewBox="0 0 815.04 302.84"><defs><style>.bd24abc8-4926-4ac7-9277-481c30981193{fill:#6ea948;}.fcf9d4ce-e1d7-4791-b321-4eaa20175d37{fill:#96c682;}.a89d7a16-f0f7-4177-b1a7-356a52d950cb{fill:#231f20;}.b702f3e5-aa5d-4f3c-b4d8-df3959111198,.bef2f9df-ebe1-44cc-87bd-eae148d57aa3,.ee3cd94f-d120-4160-9beb-10f17ae2bf0d{fill:none;stroke:#231f20;}.b702f3e5-aa5d-4f3c-b4d8-df3959111198,.ee3cd94f-d120-4160-9beb-10f17ae2bf0d{stroke-miterlimit:10;}.ee3cd94f-d120-4160-9beb-10f17ae2bf0d{stroke-width:39px;}.b702f3e5-aa5d-4f3c-b4d8-df3959111198,.bef2f9df-ebe1-44cc-87bd-eae148d57aa3{stroke-width:4px;}.bef2f9df-ebe1-44cc-87bd-eae148d57aa3{stroke-linecap:round;stroke-linejoin:round;}</style></defs><title>sbol-logo</title><g id="fe260241-0bd1-446d-8b3e-d188f6cd30e7" data-name="Layer 1"><path class="bd24abc8-4926-4ac7-9277-481c30981193" d="M0,65.08c21.11-1.93,42.2-4.2,63.36-6.07s42.41-3.31,63.76-3,42.76,2.78,63.46,8.45a216.49,216.49,0,0,1,58.61,26c4.54,2.83,9,5.83,13.33,9s8.61,6.34,12.78,9.7,8.25,6.79,12.25,10.33,7.94,7.21,11.7,11c15.11,15.24,28,32.35,40.25,49.76s23.73,35.24,36.22,52.25,26,33.28,42,46.74A159.77,159.77,0,0,0,443.33,297a141,141,0,0,0,28.76,11.93c10,2.92,20.24,4.94,30.57,5a95.61,95.61,0,0,0,30.49-4.45A108.4,108.4,0,0,0,561,295.88a124.76,124.76,0,0,0,12.34-9.49,151.49,151.49,0,0,0,11.14-11,260.34,260.34,0,0,0,19.72-24.56c6.15-8.56,12-17.38,17.65-26.3,11.34-17.86,22.11-36.14,33.37-54.17,5.62-9,11.38-18,17.41-26.75S685,126.26,691.81,118c3.42-4.12,7-8.1,10.73-11.94,1.83-1.95,3.75-3.82,5.62-5.73S712,96.63,714,94.86c3.93-3.63,8.08-7,12.35-10.32a123,123,0,0,1,13.42-9,88.57,88.57,0,0,1,14.71-6.84A74.81,74.81,0,0,1,770.3,65a101.42,101.42,0,0,1,16.13-.59c5.34.15,10.62.51,15.84.45l.06,2.9c-2.68.48-5.39.92-8.07,1.22s-5.34.59-8,.94-5.18.72-7.67,1.22-4.94,1-7.31,1.65a65.14,65.14,0,0,0-13.44,5.37c-1.06.55-2.09,1.18-3.12,1.76s-2,1.26-3,1.92-2,1.31-3,2-2,1.39-2.92,2.13-1.9,1.48-2.84,2.25l-2.78,2.36c-1.82,1.64-3.63,3.27-5.4,5-3.53,3.43-7,7-10.24,10.78-.83.92-1.64,1.88-2.45,2.84L719.67,112c-1.58,2-3.2,3.87-4.75,5.88-3.13,4.06-6.18,7.76-9.09,11.83-11.84,16-22.07,33.91-32.36,52.07-5.12,9.1-10.11,18.4-15.29,27.69s-10.43,18.66-15.92,28.05S631,256.3,624.72,265.61a283.43,283.43,0,0,1-20.94,27.59,162.35,162.35,0,0,1-12.86,13.19c-1.18,1.06-2.35,2.12-3.59,3.16l-1.84,1.56-1.83,1.48q-3.66,2.94-7.55,5.68A133.62,133.62,0,0,1,541.57,336a123.49,123.49,0,0,1-39.32,6.25,127.27,127.27,0,0,1-19.77-1.62c-1.63-.24-3.23-.57-4.85-.85l-4.53-1c-3-.71-6-1.45-9-2.33A173,173,0,0,1,399,301.29a239,239,0,0,1-25.21-25.2q-5.71-6.57-11-13.31c-3.51-4.47-6.81-9-10-13.55-6.46-9.07-12.5-18.14-18.39-27.06l-17.26-26.36c-5.7-8.58-11.46-16.91-17.44-24.85a284.46,284.46,0,0,0-18.56-22.62c-1.62-1.76-3.28-3.48-4.94-5.18l-2.52-2.51L271,138.07c-3.62-3.4-7.24-6.78-10.95-10s-7.47-6.42-11.33-9.44S241,112.66,237,109.9s-8-5.45-12.18-8-8.36-4.87-12.66-7.08-8.68-4.26-13.14-6.14-9-3.66-13.6-5.25a229.31,229.31,0,0,0-28.57-7.62c-9.79-2-19.83-3.29-30-4.32-20.4-2-41.41-2.3-62.59-2.62-10.6-.14-21.23-.12-31.89-.19l-16-.29-8-.16L.25,68Z" transform="translate(0 -52.26)"/><path class="fcf9d4ce-e1d7-4791-b321-4eaa20175d37" d="M815,329.35c-1.34.58-2.69,1.22-4.06,1.74l-4.14,1.53L802.61,334c-1.43.39-2.86.78-4.32,1.12-2.91.69-5.87,1.33-8.89,1.79-1.51.26-3,.45-4.58.62s-3.09.25-4.66.31a86.35,86.35,0,0,1-19.09-1.31,95.46,95.46,0,0,1-9.41-2.25c-3.08-.89-6.11-1.84-9-2.95s-5.66-2.21-8.34-3.29-5.23-2.14-7.67-3.15c-1.22-.5-2.41-1-3.59-1.41-.6-.23-1.13-.4-1.79-.69s-1.6-.82-2.38-1.25a91.26,91.26,0,0,1-9-5.6c-11.39-8.05-20.22-17.83-27.75-27.76a262.29,262.29,0,0,1-19.53-30.51c-5.71-10.28-10.89-20.57-15.79-30.83-9.76-20.51-18.66-40.8-28.26-60.05-2.4-4.81-4.83-9.55-7.34-14.19s-5-9.21-7.63-13.64a198.39,198.39,0,0,0-16.87-24.55,95.23,95.23,0,0,0-19.31-18.28,62.31,62.31,0,0,0-10.38-5.73c-.88-.39-1.76-.74-2.65-1.06-.25-.09-.4-.16-.71-.26l-.89-.3-1.77-.59-3.53-1.17L544,86c-2.36-.75-4.71-1.29-7.07-1.93-1.17-.34-2.35-.54-3.52-.82s-2.35-.56-3.52-.77c-2.34-.42-4.69-.92-7-1.21-1.17-.16-2.33-.37-3.49-.5l-3.47-.36a116.87,116.87,0,0,0-13.68-.5A97.1,97.1,0,0,0,489,81a98.15,98.15,0,0,0-12.82,2.87A101.16,101.16,0,0,0,451.94,95a137.78,137.78,0,0,0-11.44,7.92,180.78,180.78,0,0,0-21.43,19.9c-6.86,7.34-13.35,15.39-19.8,23.69s-12.64,17.06-18.83,26l-18.66,27.38c-6.35,9.24-12.82,18.59-19.68,27.92q-5.13,7-10.63,14c-3.7,4.61-7.53,9.19-11.59,13.7-7.77,8.55-15.72,16.85-24,25s-17.05,15.93-26.2,23.42q-6.87,5.6-14.08,10.88t-15,10c-5.11,3.18-10.35,6.2-15.75,9s-10.91,5.38-16.57,7.65a188.2,188.2,0,0,1-35,10.38,201.27,201.27,0,0,1-35.78,3.31c-23.72,0-46.58-3.73-68.61-9.13-11-2.74-21.88-5.81-32.63-9.11q-8-2.61-16-5.34l-7.94-2.77-7.89-2.92.66-2.72c21.62,5.12,43.36,9.82,65.29,13.1s44.1,5.08,66.1,3.52a186.19,186.19,0,0,0,32.57-5,171.69,171.69,0,0,0,31-11c20-9.29,38.05-22.26,54.6-36.86s31.72-30.87,46.14-47.69,26.56-35.33,38.78-53.89S363.89,147.92,377.3,130a332.5,332.5,0,0,1,21.36-26,207.37,207.37,0,0,1,24.65-23.1,141.09,141.09,0,0,1,28.95-17.75,129.29,129.29,0,0,1,16-6,127,127,0,0,1,16.67-3.62,133.6,133.6,0,0,1,34-.46,175.22,175.22,0,0,1,33.08,7.07l4,1.27,4,1.39c2.63.9,5.35,1.88,8,3.07a86.13,86.13,0,0,1,14.9,8.53,121.61,121.61,0,0,1,24.37,23.68,222.93,222.93,0,0,1,18.72,28.05c5.58,9.74,10.62,19.73,15.41,29.81,9.58,20.18,18.15,40.74,27.32,60.95,4.6,10.1,9.34,20.13,14.5,29.9A239.38,239.38,0,0,0,700.34,275c6.43,8.86,13.74,17.14,22.43,23.58a72.42,72.42,0,0,0,6.74,4.43l3.62,2,3.67,2.08c4.85,2.79,9.58,5.68,14.41,8.29a94.15,94.15,0,0,0,30.65,10.82,124.44,124.44,0,0,0,32.84.35Z" transform="translate(0 -52.26)"/><path class="a89d7a16-f0f7-4177-b1a7-356a52d950cb" d="M63,332.75l16.73-45.52q26.82,21.09,52.77,21.1,39.89,0,39.89-31.26,0-14.65-9.41-27.94t-38.75-29.8q-29.35-16.5-39.54-27.15A73.45,73.45,0,0,1,69,166.88a92,92,0,0,1-5.48-32.44q0-33.21,21.68-55.09t55.65-21.88q44.25,0,65,18.56l-13.76,43.76q-23.86-19.14-50.34-19.15-15.67,0-24.29,9.28t-8.63,24.13q0,24.62,48.6,51.19,25.6,14.07,36.93,25.89a80.34,80.34,0,0,1,17.24,27.55,98.79,98.79,0,0,1,5.92,35.07q0,34.77-24.47,57.24t-65.58,22.47A107.59,107.59,0,0,1,63,332.75Z" transform="translate(0 -52.26)"/><path class="a89d7a16-f0f7-4177-b1a7-356a52d950cb" d="M624.43,340.36V64.14h47.68V300.23h90.13v40.13Z" transform="translate(0 -52.26)"/><path class="ee3cd94f-d120-4160-9beb-10f17ae2bf0d" d="M584.14,194c0,44.73-36.33,86.53-79.87,86.53S426.48,247.94,426.48,194c0-44.73,35.3-81,78.83-81S584.14,149.3,584.14,194Z" transform="translate(0 -52.26)"/><path class="b702f3e5-aa5d-4f3c-b4d8-df3959111198" d="M518.89,171.29" transform="translate(0 -52.26)"/><polygon class="bef2f9df-ebe1-44cc-87bd-eae148d57aa3" points="538.79 133.81 549.71 132.51 548.35 122.12 506.1 90.86 496.54 102.56 538.79 133.81"/><polyline class="bef2f9df-ebe1-44cc-87bd-eae148d57aa3" points="517.21 197.29 508.19 157.66 539.87 151.18 529.74 166.09 539.87 151.18 525.47 142.32"/><polyline class="bef2f9df-ebe1-44cc-87bd-eae148d57aa3" points="453.04 139.29 495.38 137.21 493.67 119.96 497.08 154.47"/><path class="a89d7a16-f0f7-4177-b1a7-356a52d950cb" d="M232.2,70.45c14-3.29,39.26-5.93,63.81-5.93,32.1,0,52.19,4.79,68.5,17.51,14.77,10.5,24.68,28.22,24.68,51.86,0,25.32-13.72,48.45-39.82,59.41v1.07c25.28,7.38,48.44,30.32,48.44,68.28,0,24.48-9.2,43.5-22.91,56.91C357.84,336.51,329.82,345,286,345a360,360,0,0,1-53.77-3.62Zm43.39,108.88H298c30.33,0,47.18-16.47,47.18-39.77,0-25.89-17-37.79-44.57-37.79-13,0-20.3,1-25,2.21Zm0,126.41c5.7,1.22,13.07,1.44,23.13,1.44,28,0,53.12-12.11,53.12-46.12,0-32-24.48-45.18-54.51-45.23H275.59Z" transform="translate(0 -52.26)"/></g></svg>