<?xml version="1.0" encoding="utf-8"?>
<!-- Generator: Adobe Illustrator 22.0.1, SVG Export Plug-In . SVG Version: 6.00 Build 0)  -->
<svg version="1.1" xmlns="http://www.w3.org/2000/svg" xmlns:xlink="http://www.w3.org/1999/xlink" x="0px" y="0px"
	 viewBox="0 0 1141.7 396.9" style="enable-background:new 0 0 1141.7 396.9;" xml:space="preserve">
<style type="text/css">
	.st0{fill:#70A638;}
	.st1{fill:#A1C77A;}
	.st2{fill:none;stroke:#000000;stroke-width:33;stroke-miterlimit:10;}
	.st3{fill:none;stroke:#000000;stroke-width:4;stroke-miterlimit:10;}
	.st4{fill:none;stroke:#000000;stroke-width:4;stroke-linecap:round;stroke-linejoin:round;stroke-miterlimit:10;}
</style>
<g id="Layer_2">
</g>
<g id="Layer_1">
	<g>
		<path class="st0" d="M4.6,14.4c29.7-2.8,59.6-3.7,89.5-2.8c14.9,0.5,29.9,1.4,44.7,2.7c14.9,1.4,29.7,3.4,44.5,5.8
			c14.7,2.5,29.4,5.5,43.9,9.2c14.5,3.7,28.8,8.1,42.9,13.2c28.1,10.2,55.4,23.4,80,40.7c12.3,8.6,23.9,18.2,34.6,28.9
			c10.7,10.7,20,22.6,28.5,34.9c8.5,12.3,16.2,25.2,23.6,38.2c7.4,13,14.5,26.1,21.8,39c7.3,12.9,14.8,25.7,23.1,38
			c2.1,3,4.2,6.1,6.4,9.1c1.1,1.5,2.2,3,3.3,4.5l3.4,4.4l1.7,2.2l1.8,2.1l3.5,4.2c1.2,1.4,2.5,2.7,3.7,4.1c1.2,1.3,2.4,2.8,3.8,4
			c10.2,10.5,21.5,20.1,34,27.7c12.5,7.6,26,13.6,40,18.2c13.9,4.4,28.5,7,43,6.6c14.5-0.4,28.9-4,41.9-10.5
			c13-6.5,24.8-15.5,35.1-25.9c10.4-10.4,19.6-22,28-34.1c16.8-24.4,30.6-50.8,44.4-77.2c6.9-13.2,13.7-26.5,21-39.5
			c7.3-13.1,15.4-25.8,24.2-37.9l3.4-4.5c1.1-1.5,2.2-3,3.4-4.5l7.1-8.8l7.4-8.5c1.2-1.4,2.6-2.7,3.8-4.1l3.9-4.1
			c10.5-10.7,21.9-20.6,34.1-29.4c12.2-8.8,25.2-16.5,38.9-22.8c13.6-6.3,27.9-11.3,42.5-14.8c29.3-7.1,59.8-8.1,89.5-4.6l5.6,0.7
			c1.9,0.2,3.7,0.6,5.6,0.9l5.5,0.9l2.8,0.4l2.8,0.6c3.7,0.8,7.3,1.5,11,2.3l10.9,2.7c14.5,3.8,28.7,8.5,42.7,13.8l-1,2.7l-10.8-2.8
			c-3.6-1-7.2-1.8-10.8-2.7l-5.4-1.3c-1.8-0.4-3.6-0.7-5.4-1.1l-5.4-1.1c-1.8-0.4-3.6-0.7-5.4-1c-14.5-2.7-29.1-4.3-43.6-4.9
			c-29-1.2-57.8,1.5-84.7,9.8c-26.9,8.1-51.8,21.3-73.5,38.5c-21.7,17.3-40.4,38.1-56,61.4c-7.8,11.6-15,23.7-21.5,36.2
			c-6.6,12.8-13.1,26-19.7,39.4c-13.1,26.9-26.9,54.3-44.5,80.9c-8.8,13.3-18.9,26.3-30.8,38.4c-6,6-12.4,11.9-19.4,17.2
			c-7,5.3-14.7,10.2-22.9,14.4c-16.4,8.3-35.2,13.1-53.6,13.7c-9.2,0.3-18.3-0.3-27.1-1.7c-8.8-1.4-17.3-3.5-25.6-6
			c-8.2-2.6-16-5.8-23.6-9.2l-2.8-1.3c-0.9-0.4-1.9-0.9-2.9-1.4l-5.8-3l-2.9-1.5l-2.8-1.6l-5.6-3.3c-14.7-9.1-27.9-20.3-39.5-32.4
			c-1.5-1.5-2.8-3.1-4.2-4.6c-1.4-1.6-2.8-3.1-4.1-4.7l-3.9-4.8l-2-2.4l-1.9-2.4l-3.7-4.9c-1.2-1.6-2.4-3.3-3.5-4.9
			c-2.4-3.3-4.6-6.6-6.8-9.9c-2.2-3.3-4.3-6.7-6.4-10c-2-3.3-4.1-6.7-6.1-10.1c-4-6.7-7.7-13.4-11.3-20.1
			c-7.3-13.4-14.1-26.6-21.1-39.4c-7-12.8-14-25.2-21.6-36.8c-7.6-11.6-15.7-22.5-24.8-32.2l-3.4-3.6l-3.7-3.5l-3.7-3.6
			c-1.2-1.2-2.5-2.3-3.8-3.4c-2.6-2.2-5.1-4.6-7.8-6.7l-4-3.2c-0.7-0.5-1.3-1.1-2-1.6l-2.1-1.5c-11.1-8.2-22.8-15.9-35.1-22.7
			c-12.3-6.8-25.2-12.8-38.4-18.3c-26.4-10.9-54.2-19.3-82.7-25.7c-14.2-3.3-28.6-6-43.1-8.3c-14.5-2.3-29.1-4.1-43.8-5.7
			c-14.7-1.5-29.5-2.6-44.3-3.3l-11.1-0.5l-11.1-0.3L16,17.4L4.9,17.3L4.6,14.4z"/>
	</g>
	<g>
		<path class="st1" d="M1131.3,336.2c-3.5,1.5-6.9,3.1-10.4,4.6l-5.3,2.2l-5.3,2.1c-7.1,2.7-14.3,5.4-21.6,7.8
			c-14.6,4.6-29.6,8.4-45,10.8c-15.4,2.4-31.3,3.2-47.4,1.8c-16-1.5-32.2-5.4-47.4-12.2c-7.6-3.3-14.9-7.5-21.8-12.1
			c-6.9-4.6-13.4-9.8-19.5-15.3c-12.2-11.1-22.6-23.7-31.9-36.6c-9.3-13-17.3-26.5-24.9-40.1c-7.5-13.6-14.6-27.2-21.3-40.7
			c-6.8-13.5-13.5-26.9-20.4-39.9c-6.9-13.1-13.9-25.8-21.5-37.9c-3.8-6.1-7.7-12-11.8-17.7c-4.1-5.7-8.2-11.3-12.6-16.6
			c-8.7-10.7-18.2-20.3-28.5-28.7c-10.3-8.4-21.3-15.6-33.1-21.3c-11.8-5.8-24.3-10.1-37.3-13.1c-6.5-1.5-13.1-2.8-19.9-3.7
			c-6.7-0.9-13.1-1.5-19.6-1.6c-12.9-0.2-25.3,1.3-36.9,4.8c-11.7,3.4-22.6,8.9-32.8,16.2c-5.1,3.7-10,7.8-14.7,12.3
			c-4.7,4.5-9.2,9.4-13.6,14.5c-8.8,10.3-16.9,21.7-24.6,33.8c-3.8,6-7.6,12.2-11.3,18.6c-3.7,6.3-7.4,12.7-11.1,19.2
			c-14.7,25.9-29,53.2-47.9,79.5c-2.4,3.3-4.8,6.5-7.4,9.8c-1.3,1.6-2.5,3.2-3.9,4.8c-1.3,1.6-2.7,3.2-4,4.7
			c-2.7,3.1-5.4,6.1-8.2,9.1c-2.9,2.9-5.7,5.8-8.7,8.6c-5.9,5.6-12.1,11-18.5,16.1c-6.4,5.1-13,9.8-19.8,14.3
			c-13.5,9-28,16.5-42.7,22.9c-7.4,3.2-14.9,6.1-22.4,8.7c-7.6,2.6-15.2,4.8-22.9,6.8c-30.7,8-62.1,11.5-93.1,11.8
			c-31.1,0.2-61.8-2.6-92-8c-15.1-2.7-30-5.9-44.7-9.8c-7.4-1.9-14.7-4-22-6.2c-3.6-1.1-7.3-2.2-10.9-3.4c-3.6-1.2-7.2-2.4-10.8-3.7
			l0.7-2.7c29.2,7.3,58.9,12.9,88.8,16.2c29.9,3.3,60,4.4,90,2.6c15-0.9,29.9-2.5,44.7-5c14.8-2.5,29.4-5.8,43.8-10.1
			c28.7-8.6,56.2-21.3,80.7-38.5c6.1-4.3,12.1-8.8,17.8-13.6c5.7-4.8,11.2-9.9,16.5-15.2c5.3-5.3,10.3-10.8,15.1-16.6
			c4.8-5.7,9.3-11.7,13.5-17.9c8.5-12.3,16.1-25.3,23.4-38.4c7.3-13.1,14.4-26.5,21.6-39.7c7.2-13.3,14.6-26.5,22.6-39.4
			c8-12.9,16.6-25.4,26.4-37.2c9.8-11.7,20.7-22.6,33.1-31.6c12.4-9.1,26.3-16.1,41.1-20.5C594.6,1.4,610-0.3,625.4,0
			c7.7,0.2,15.3,0.9,22.9,2c7.5,1.1,15.1,2.5,22.5,4.3c14.8,3.6,29.3,8.8,43,15.7c13.7,6.9,26.5,15.4,38.1,25.3
			c11.7,9.9,22.2,21,31.6,33c9.5,11.9,17.9,24.6,25.6,37.7c15.4,26.1,28.1,53.7,40.8,81c6.4,13.7,12.8,27.3,19.6,40.7
			c6.9,13.4,14.1,26.5,22.4,39c8.2,12.5,17.4,24.4,28,34.9c5.3,5.2,10.9,10.1,16.9,14.5c6,4.4,12.3,8.3,19,11.6
			c13.2,6.7,27.7,11.1,42.4,13.3c14.8,2.2,29.8,2.3,44.7,1c14.9-1.3,29.7-3.9,44.3-7.4c14.6-3.5,29-7.9,43.2-12.9L1131.3,336.2z"/>
	</g>
	<g>
		<path d="M95.1,328.7l19.5-47.8c20.8,14.8,41.3,22.2,61.4,22.2c30.9,0,46.4-11,46.4-32.9c0-10.3-3.6-20.1-10.9-29.4
			c-7.3-9.3-22.3-19.7-45.1-31.3c-22.8-11.6-38.1-21.1-46-28.5c-7.9-7.5-14-16.3-18.2-26.6c-4.3-10.3-6.4-21.6-6.4-34.1
			c0-23.3,8.4-42.6,25.2-57.9c16.8-15.3,38.4-23,64.7-23c34.3,0,59.5,6.5,75.6,19.5l-16,46c-18.5-13.4-38-20.1-58.6-20.1
			c-12.2,0-21.6,3.3-28.3,9.8c-6.7,6.5-10,15-10,25.4c0,17.2,18.8,35.2,56.5,53.8c19.9,9.9,34.2,18.9,43,27.2
			c8.8,8.3,15.5,17.9,20.1,29c4.6,11,6.9,23.3,6.9,36.9c0,24.4-9.5,44.4-28.5,60.2c-19,15.7-44.4,23.6-76.3,23.6
			C142.4,350.4,117.4,343.2,95.1,328.7z"/>
		<path d="M394.3,345.3h-90.8V44.7c40-1.9,68-2.9,84.1-2.9c30.8,0,54.9,6.7,72.2,20c17.4,13.3,26,32.4,26,57.2
			c0,23.8-12.4,42.6-37.3,56.5c36.9,13,55.3,39.8,55.3,80.5c0,27.4-10.2,49.1-30.6,65.2C453,337.3,426.6,345.3,394.3,345.3z
			 M356.3,87.4v72.1c8.1,0.5,16.6,0.8,25.5,0.8c34.3,0,51.5-13.1,51.5-39.2c0-23.1-15.6-34.7-46.8-34.7
			C378.2,86.4,368.1,86.7,356.3,87.4z M356.3,201.2v99.4c10.7,1,19.3,1.4,25.9,1.4c23.5,0,40.6-4,51.2-12.1
			c10.6-8.1,15.9-21.5,15.9-40.2c0-17.1-4.9-29.6-14.8-37.4c-9.9-7.8-27.1-11.7-51.7-11.7C377.7,200.5,368.8,200.7,356.3,201.2z"/>
		<path d="M767,345.3V44.5h52.7v253.4h134.1v47.4H767z"/>
	</g>
	<path class="st2" d="M727,183.8c0,65-46.9,125.8-103.2,125.8c-56.2,0-100.5-60.8-100.5-125.8S568.9,66.1,625.2,66.1
		C681.4,66.1,727,118.8,727,183.8z"/>
	<path class="st3" d="M424.9,497.2"/>
	<polygon class="st4" points="623.3,266.4 636.3,264.8 634.7,251.8 584.3,212.6 572.9,227.2 	"/>
	<polyline class="st4" points="568.6,169.1 609.5,110.1 641.2,132.1 619.3,136.1 641.2,132.1 637.6,112 	"/>
	<polyline class="st4" points="642.8,214.3 677.4,175.7 661.7,161.6 693.2,189.8 	"/>
	<g>
	</g>
	<g>
	</g>
	<g>
	</g>
	<g>
	</g>
	<g>
	</g>
	<g>
	</g>
</g>
</svg>
