<svg xmlns="http://www.w3.org/2000/svg" viewBox="0 0 407.62 150.64"><defs><style>.cls-1{fill:#232323;}.cls-2{fill:#98c255;}.cls-3{fill:none;}.cls-4{fill:#fff;}</style></defs><g id="Layer_2" data-name="Layer 2"><g id="Layer_1-2" data-name="Layer 1"><path class="cls-1" d="M6.61,74.35a11.11,11.11,0,0,1,14,5.45C23,84.63,28.26,89.93,37.92,89.93c9.19,0,15.58-4.36,15.73-11.37.16-4.83-2-9-12.93-12.15L27.8,62.82C4.12,55.5.07,42,.07,32.29.07,13.13,16.42.2,37,.2,52.41.2,63.93,6.9,69.7,18.12a9.43,9.43,0,0,1-3.43,12.61c-5.61,3.59-10.59,2-14.33-2.64a19,19,0,0,0-15.26-7.48c-7.95,0-13.87,4.67-13.87,11.06,0,2.8,1.09,7.94,11.53,10.9l12.77,3.74c26,7.48,29.75,22.12,29.44,32.4-.31,21.34-19.63,31.47-38.63,31.47S5.21,101,.54,87.13A10,10,0,0,1,6.61,74.35Z"/><path class="cls-1" d="M101.83,108.78c-5.77,0-9-4.52-9-9.66v-88c.16-5.3,3.27-9.66,9-9.66h34c19.31,0,31.77,11.53,31.77,29.91,0,7-3.58,15.89-14.64,20.09C167.1,55,173.17,67.19,173.17,75.91c0,17.76-12.93,32.87-34.27,32.87ZM133.6,44.29c5.92,0,10-5,10-11.37,0-6.7-3.42-11.37-10.12-11.37H115.69V44.29ZM115.69,62.36V88.68h22c7.64,0,11.53-7,11.53-13.39,0-6.08-3.89-12.93-12-12.93Z"/><path class="cls-1" d="M367.28,88.84h31c5.14,0,9.34,4.52,9.34,10,0,5.14-4.36,9.81-9.34,10H353.57c-5.76,0-9-4.37-9-9.66V11.26C344.69,5.66,350,.67,355.91.67c6.23,0,11.37,4.83,11.37,10.59Z"/><path class="cls-1" d="M1,144.71l.61-1.19a7.18,7.18,0,0,0,4.82,1.78c2.73,0,3.92-1.15,3.92-2.59,0-4-9-1.55-9-7,0-2.15,1.67-4,5.38-4A8.28,8.28,0,0,1,11.25,133l-.52,1.23a7.54,7.54,0,0,0-4-1.21c-2.67,0-3.86,1.19-3.86,2.65,0,4,9,1.59,9,6.91,0,2.15-1.72,4-5.45,4A7.93,7.93,0,0,1,1,144.71Z"/><path class="cls-1" d="M25.48,135.51,20,147.8c-.92,2.15-2.09,2.84-3.65,2.84a3.73,3.73,0,0,1-2.67-1l.69-1.11a2.75,2.75,0,0,0,2,.84c1,0,1.65-.46,2.28-1.84l.48-1.07-4.91-11h1.54l4.14,9.33L24,135.51Z"/><path class="cls-1" d="M39.23,140.12v6.37H37.75v-6.23c0-2.31-1.21-3.5-3.3-3.5a3.6,3.6,0,0,0-3.84,4v5.77H29.13v-11h1.42v2a4.59,4.59,0,0,1,4.17-2.11C37.4,135.42,39.23,137,39.23,140.12Z"/><path class="cls-1" d="M50.6,145.82a3.52,3.52,0,0,1-2.31.77,2.91,2.91,0,0,1-3.22-3.19v-6.64h-2v-1.25h2v-2.4h1.48v2.4h3.34v1.25H46.55v6.55a1.76,1.76,0,0,0,1.9,2,2.44,2.44,0,0,0,1.63-.57Z"/><path class="cls-1" d="M65,140.12v6.37H63.48v-6.23c0-2.31-1.21-3.5-3.3-3.5a3.6,3.6,0,0,0-3.84,4v5.77H54.86V131h1.48v6.43a4.62,4.62,0,0,1,4.11-2C63.12,135.42,65,137,65,140.12Z"/><path class="cls-1" d="M80.15,141.45H71a4.06,4.06,0,0,0,4.32,3.82,4.34,4.34,0,0,0,3.36-1.44l.83,1a5.8,5.8,0,0,1-10-3.8,5.29,5.29,0,0,1,5.37-5.57A5.23,5.23,0,0,1,80.17,141C80.17,141.12,80.15,141.29,80.15,141.45ZM71,140.35h7.78a3.9,3.9,0,0,0-7.78,0Z"/><path class="cls-1" d="M90.54,145.82a3.53,3.53,0,0,1-2.32.77A2.91,2.91,0,0,1,85,143.4v-6.64h-2v-1.25h2v-2.4h1.48v2.4h3.34v1.25H86.49v6.55a1.76,1.76,0,0,0,1.9,2,2.44,2.44,0,0,0,1.63-.57Z"/><path class="cls-1" d="M94.46,132a1.07,1.07,0,0,1,1.09-1,1.05,1.05,0,0,1,1.08,1,1.09,1.09,0,0,1-2.17,0Zm.34,3.47h1.48v11H94.8Z"/><path class="cls-1" d="M100.87,141a5.4,5.4,0,0,1,5.65-5.57,4.79,4.79,0,0,1,4.3,2.17l-1.1.75a3.74,3.74,0,0,0-3.2-1.62,4.28,4.28,0,0,0,0,8.55,3.72,3.72,0,0,0,3.2-1.6l1.1.75a4.83,4.83,0,0,1-4.3,2.17A5.42,5.42,0,0,1,100.87,141Z"/><path class="cls-1" d="M134.84,142.58c0,2.49-1.83,3.91-5.49,3.91h-6.72V131.87h6.3c3.26,0,5.14,1.38,5.14,3.76a3.4,3.4,0,0,1-2.23,3.32A3.48,3.48,0,0,1,134.84,142.58Zm-10.66-9.43v5.3h4.65c2.34,0,3.7-.9,3.7-2.65s-1.36-2.65-3.7-2.65Zm9.12,9.31c0-1.9-1.4-2.74-4-2.74h-5.15v5.49h5.15C131.9,145.21,133.3,144.38,133.3,142.46Z"/><path class="cls-1" d="M139.28,132a1.07,1.07,0,0,1,1.09-1,1.05,1.05,0,0,1,1.08,1,1.09,1.09,0,0,1-2.17,0Zm.34,3.47h1.48v11h-1.48Z"/><path class="cls-1" d="M145.69,141a5.59,5.59,0,1,1,5.59,5.6A5.4,5.4,0,0,1,145.69,141Zm9.66,0a4.08,4.08,0,1,0-4.07,4.28A4,4,0,0,0,155.35,141Z"/><path class="cls-1" d="M161.44,131h1.48v15.49h-1.48Z"/><path class="cls-1" d="M167.51,141a5.59,5.59,0,1,1,5.6,5.6A5.4,5.4,0,0,1,167.51,141Zm9.67,0a4.08,4.08,0,1,0-4.07,4.28A4,4,0,0,0,177.18,141Z"/><path class="cls-1" d="M193.43,135.51v9.64c0,3.78-1.85,5.49-5.49,5.49a7.68,7.68,0,0,1-5.11-1.69l.75-1.13a6.54,6.54,0,0,0,4.32,1.5c2.78,0,4-1.27,4-4v-1.4a4.94,4.94,0,0,1-4.28,2.13,5.33,5.33,0,1,1,0-10.65,4.94,4.94,0,0,1,4.34,2.19v-2.1ZM192,140.72a4.17,4.17,0,1,0-4.17,4A3.92,3.92,0,0,0,192,140.72Z"/><path class="cls-1" d="M208.37,135.51l-5.49,12.29c-.91,2.15-2.08,2.84-3.65,2.84a3.75,3.75,0,0,1-2.67-1l.69-1.11a2.75,2.75,0,0,0,2,.84c1,0,1.65-.46,2.28-1.84l.48-1.07-4.91-11h1.55l4.13,9.33,4.13-9.33Z"/><path class="cls-1" d="M218.07,139.18a7.67,7.67,0,1,1,7.68,7.43A7.35,7.35,0,0,1,218.07,139.18Zm13.8,0a6.14,6.14,0,1,0-6.12,6A5.92,5.92,0,0,0,231.87,139.18Z"/><path class="cls-1" d="M249.25,141a5.32,5.32,0,0,1-5.47,5.6,4.79,4.79,0,0,1-4.17-2.17v6.11h-1.49v-15h1.42v2.17a4.8,4.8,0,0,1,4.24-2.26A5.32,5.32,0,0,1,249.25,141Zm-1.48,0a4.09,4.09,0,1,0-4.09,4.28A4,4,0,0,0,247.77,141Z"/><path class="cls-1" d="M263.4,141.45h-9.19a4.06,4.06,0,0,0,4.32,3.82,4.35,4.35,0,0,0,3.37-1.44l.83,1a5.8,5.8,0,0,1-10-3.8,5.29,5.29,0,0,1,5.37-5.57,5.23,5.23,0,0,1,5.32,5.57C263.42,141.12,263.4,141.29,263.4,141.45Zm-9.19-1.1H262a3.9,3.9,0,0,0-7.79,0Z"/><path class="cls-1" d="M278.11,140.12v6.37h-1.48v-6.23c0-2.31-1.21-3.5-3.3-3.5a3.6,3.6,0,0,0-3.84,4v5.77H268v-11h1.42v2a4.59,4.59,0,0,1,4.17-2.11C276.27,135.42,278.11,137,278.11,140.12Z"/><path class="cls-1" d="M291,131.87h1.55v13.28h8.18v1.34H291Z"/><path class="cls-1" d="M312.91,139.68v6.81h-1.42v-1.72a4.1,4.1,0,0,1-3.77,1.82c-2.49,0-4-1.29-4-3.19,0-1.7,1.08-3.11,4.24-3.11h3.48v-.67c0-1.88-1.06-2.9-3.11-2.9a5.6,5.6,0,0,0-3.65,1.29L304,136.9a7,7,0,0,1,4.47-1.48C311.31,135.42,312.91,136.84,312.91,139.68Zm-1.48,3.51v-1.8H308c-2.13,0-2.82.84-2.82,2,0,1.28,1,2.07,2.78,2.07A3.5,3.5,0,0,0,311.43,143.19Z"/><path class="cls-1" d="M328.61,140.12v6.37h-1.49v-6.23c0-2.31-1.21-3.5-3.29-3.5a3.6,3.6,0,0,0-3.84,4v5.77H318.5v-11h1.42v2a4.62,4.62,0,0,1,4.18-2.11C326.77,135.42,328.61,137,328.61,140.12Z"/><path class="cls-1" d="M344.4,135.51v9.64c0,3.78-1.86,5.49-5.49,5.49A7.68,7.68,0,0,1,333.8,149l.75-1.13a6.52,6.52,0,0,0,4.32,1.5c2.78,0,4.05-1.27,4.05-4v-1.4a4.94,4.94,0,0,1-4.28,2.13,5.33,5.33,0,1,1,0-10.65,5,5,0,0,1,4.34,2.19v-2.1ZM343,140.72a4.17,4.17,0,1,0-4.17,4A3.92,3.92,0,0,0,343,140.72Z"/><path class="cls-1" d="M360,135.51v11h-1.42v-2a4.36,4.36,0,0,1-3.95,2.11c-2.79,0-4.63-1.57-4.63-4.72v-6.36h1.48v6.22c0,2.33,1.21,3.52,3.3,3.52,2.3,0,3.74-1.48,3.74-4v-5.76Z"/><path class="cls-1" d="M374,139.68v6.81h-1.42v-1.72a4.12,4.12,0,0,1-3.78,1.82c-2.48,0-4-1.29-4-3.19,0-1.7,1.09-3.11,4.24-3.11h3.49v-.67c0-1.88-1.07-2.9-3.11-2.9a5.63,5.63,0,0,0-3.66,1.29l-.66-1.11a6.94,6.94,0,0,1,4.46-1.48C372.4,135.42,374,136.84,374,139.68Zm-1.48,3.51v-1.8h-3.45c-2.13,0-2.81.84-2.81,2,0,1.28,1,2.07,2.77,2.07A3.52,3.52,0,0,0,372.53,143.19Z"/><path class="cls-1" d="M389.81,135.51v9.64c0,3.78-1.86,5.49-5.49,5.49A7.69,7.69,0,0,1,379.2,149l.75-1.13a6.54,6.54,0,0,0,4.32,1.5c2.78,0,4.05-1.27,4.05-4v-1.4a4.92,4.92,0,0,1-4.28,2.13,5.33,5.33,0,1,1,0-10.65,5,5,0,0,1,4.35,2.19v-2.1Zm-1.44,5.21a4.17,4.17,0,1,0-4.18,4A3.92,3.92,0,0,0,388.37,140.72Z"/><path class="cls-1" d="M405.08,141.45H395.9a4.06,4.06,0,0,0,4.32,3.82,4.34,4.34,0,0,0,3.36-1.44l.83,1a5.8,5.8,0,0,1-10-3.8,5.29,5.29,0,0,1,5.37-5.57A5.23,5.23,0,0,1,405.1,141C405.1,141.12,405.08,141.29,405.08,141.45Zm-9.18-1.1h7.78a3.9,3.9,0,0,0-7.78,0Z"/><path class="cls-2" d="M326.56,82a31.52,31.52,0,0,1-11.82-12.11A60.58,60.58,0,0,1,303.06,93a54.78,54.78,0,0,0,11.81,9.24A11.67,11.67,0,0,0,326.56,82Z"/><polygon class="cls-3" points="310.82 54.78 310.82 54.79 310.82 54.79 310.82 54.79 310.82 54.78"/><path class="cls-2" d="M197.2,7.34a11.67,11.67,0,0,0-11.69,20.19,31.54,31.54,0,0,1,11.82,12.12A60.58,60.58,0,0,1,209,16.58,54.78,54.78,0,0,0,197.2,7.34Z"/><polygon class="cls-4" points="287.49 54.79 287.49 54.79 287.49 54.79 287.49 54.79 287.49 54.79"/><path class="cls-2" d="M256,0a54.85,54.85,0,0,0-54.79,54.79A31.63,31.63,0,0,1,185.51,82a11.67,11.67,0,1,0,11.69,20.2A54.78,54.78,0,0,0,209,93a55.88,55.88,0,0,0,4-4.41,54.52,54.52,0,0,0,11.61-33.72,31.46,31.46,0,0,1,59-15.22,60.45,60.45,0,0,1,11.66-23A54.61,54.61,0,0,0,256,0Z"/><path class="cls-2" d="M310.82,54.79a31.7,31.7,0,0,1,15.74-27.26A11.67,11.67,0,1,0,314.87,7.34a54.78,54.78,0,0,0-11.81,9.24,53.1,53.1,0,0,0-3.9,4.47v0a54.43,54.43,0,0,0-11.68,33.72h0A31.45,31.45,0,0,1,228.5,70a60.53,60.53,0,0,1-11.62,23.07,54.74,54.74,0,0,0,93.94-38.26"/><path class="cls-2" d="M255.48,80a4.15,4.15,0,0,1-4.15-4.15V34.57a4.16,4.16,0,0,1,8.31,0V75.81A4.15,4.15,0,0,1,255.48,80Z"/><path class="cls-2" d="M240.54,69.07a4.15,4.15,0,0,1-4.16-4.15V45.47a4.16,4.16,0,1,1,8.31,0V64.92A4.15,4.15,0,0,1,240.54,69.07Z"/><path class="cls-2" d="M271.53,69.07a4.15,4.15,0,0,1-4.15-4.15V45.47a4.16,4.16,0,1,1,8.31,0V64.92A4.16,4.16,0,0,1,271.53,69.07Z"/></g></g></svg>