<svg xmlns="http://www.w3.org/2000/svg" viewBox="0 0 152.69 109.58"><defs><style>.cls-1{fill:#98c255;}.cls-2{fill:none;}.cls-3{fill:#fff;}</style></defs><g id="Layer_2" data-name="Layer 2"><g id="Layer_1-2" data-name="Layer 1"><path class="cls-1" d="M146.87,82a31.52,31.52,0,0,1-11.82-12.11A60.58,60.58,0,0,1,123.37,93a54.59,54.59,0,0,0,11.82,9.24A11.67,11.67,0,0,0,146.87,82Z"/><polygon class="cls-2" points="131.13 54.78 131.13 54.79 131.13 54.79 131.13 54.79 131.13 54.78"/><path class="cls-1" d="M17.51,7.34A11.67,11.67,0,0,0,5.82,27.53,31.54,31.54,0,0,1,17.64,39.65,60.58,60.58,0,0,1,29.32,16.58,54.78,54.78,0,0,0,17.51,7.34Z"/><polygon class="cls-3" points="107.81 54.79 107.81 54.79 107.81 54.79 107.81 54.79 107.81 54.79"/><path class="cls-1" d="M76.35,0A54.85,54.85,0,0,0,21.56,54.79a31.4,31.4,0,0,1-3.92,15.14A31.52,31.52,0,0,1,5.82,82a11.67,11.67,0,1,0,11.69,20.2A54.78,54.78,0,0,0,29.32,93a52.17,52.17,0,0,0,4-4.41A54.47,54.47,0,0,0,44.89,54.87a31.45,31.45,0,0,1,59-15.22,60.45,60.45,0,0,1,11.66-23A54.59,54.59,0,0,0,76.35,0Z"/><path class="cls-1" d="M131.13,54.79a31.7,31.7,0,0,1,15.74-27.26A11.67,11.67,0,1,0,135.18,7.34a54.78,54.78,0,0,0-11.81,9.24,57,57,0,0,0-3.9,4.47v0A54.43,54.43,0,0,0,107.8,54.79h0A31.45,31.45,0,0,1,48.81,70,60.53,60.53,0,0,1,37.19,93.05a54.74,54.74,0,0,0,93.94-38.26"/><path class="cls-1" d="M75.8,80a4.15,4.15,0,0,1-4.16-4.15V34.57a4.16,4.16,0,0,1,8.31,0V75.81A4.15,4.15,0,0,1,75.8,80Z"/><path class="cls-1" d="M60.85,69.07a4.15,4.15,0,0,1-4.16-4.15V45.47a4.16,4.16,0,1,1,8.31,0V64.92A4.15,4.15,0,0,1,60.85,69.07Z"/><path class="cls-1" d="M91.84,69.07a4.15,4.15,0,0,1-4.15-4.15V45.47a4.16,4.16,0,1,1,8.31,0V64.92A4.15,4.15,0,0,1,91.84,69.07Z"/></g></g></svg>